<svg width="51" height="54" viewBox="0 0 51 54" fill="none" xmlns="http://www.w3.org/2000/svg">
<g filter="url(#filter0_d)">
<path d="M41.1146 0.462891H5.35097C2.65756 0.462891 0.474121 2.80014 0.474121 5.6833V33.5255C0.474121 36.4087 2.65756 38.7459 5.35097 38.7459H11.1219L10.2376 47.2552C10.139 48.2104 10.7826 49.0703 11.675 49.1758C12.1358 49.2303 12.5964 49.0715 12.941 48.7395L23.3157 38.7459H41.1146C43.808 38.7459 45.9914 36.4087 45.9914 33.5255V5.6833C45.9914 2.80014 43.808 0.462891 41.1146 0.462891Z" fill="#1FCFCB"/>
</g>
<path d="M12.2373 15.5825V28.0397C12.2373 28.8996 12.9242 29.5968 13.7716 29.5968H18.3744V14.0254H13.7716C12.9242 14.0254 12.2373 14.7225 12.2373 15.5825Z" fill="white"/>
<path d="M32.5902 15.7119H28.3324C27.9601 15.7119 27.7736 15.446 27.711 15.3315C27.6484 15.2177 27.5217 14.9142 27.7019 14.5661L29.203 11.6726C29.5323 11.0391 29.5661 10.2941 29.2966 9.62887C29.027 8.96293 28.495 8.48006 27.837 8.30453L26.7785 8.02129C26.5209 7.95198 26.2479 8.04012 26.0684 8.25331L20.3215 15.0874C19.7254 15.7978 19.3975 16.7138 19.3975 17.6675V25.7401C19.3975 27.8667 21.014 29.5971 23.0007 29.5971L30.1699 29.5963C31.7886 29.5963 33.2179 28.4294 33.6451 26.7593L35.1835 19.202C35.2286 18.9919 35.2518 18.7764 35.2518 18.561C35.2518 16.9903 34.0575 15.7119 32.5902 15.7119L32.5902 15.7119Z" fill="white"/>
<defs>
<filter id="filter0_d" x="0.474121" y="0.462891" width="49.6087" height="52.8149" filterUnits="userSpaceOnUse" color-interpolation-filters="sRGB">
<feFlood flood-opacity="0" result="BackgroundImageFix"/>
<feColorMatrix in="SourceAlpha" type="matrix" values="0 0 0 0 0 0 0 0 0 0 0 0 0 0 0 0 0 0 127 0"/>
<feOffset dx="2.04572" dy="2.04572"/>
<feGaussianBlur stdDeviation="1.02286"/>
<feColorMatrix type="matrix" values="0 0 0 0 0 0 0 0 0 0 0 0 0 0 0 0 0 0 0.25 0"/>
<feBlend mode="normal" in2="BackgroundImageFix" result="effect1_dropShadow"/>
<feBlend mode="normal" in="SourceGraphic" in2="effect1_dropShadow" result="shape"/>
</filter>
</defs>
</svg>
